<svg xmlns="http://www.w3.org/2000/svg" viewBox="0 0 1000 1000"><style>.st0{fill:#010202}.st1{fill:#fff}</style><circle class="st0" cx="502" cy="499.3" r="487.8"></circle><path class="st1" d="M143.1 555.6h-23V434.8h23v120.8zm85.7 0H206V434.8l80.8 71.2v-71.2h22.8v120.8l-80.8-67.3v67.3zm191.3-46.7l36-74.1h25.1l-61 120.8-61-120.8h25.1l35.8 74.1zm109.2 46.7V434.8h23v120.8h-23zM836 434.8l58.8 120.7h-23.9l-8.6-18.9h-52.4l-8.6 18.9-24 .1L836 434.8zm-.1 43.8l-17.5 38.6h35.2l-17.7-38.6zm-113.8 108h-25.7l-15.1-26.3c-2.5.3-5.1.5-7.8.5-34.7 0-62.9-28.2-62.9-62.9s28.2-62.9 62.9-62.9 62.9 28.2 62.9 62.9c0 24.5-14 45.7-34.5 56.1l20.2 32.6zm-48.6-129c-22.2 0-40.2 18.1-40.2 40.2 0 22.2 18.1 40.2 40.2 40.2 22.2 0 40.2-18.1 40.2-40.2s-18-40.2-40.2-40.2z"></path></svg>